<svg id="visual" viewBox="0 0 900 600" width="900" height="600" xmlns="http://www.w3.org/2000/svg" xmlns:xlink="http://www.w3.org/1999/xlink" version="1.1"><rect x="0" y="0" width="900" height="600" fill="#2e176b"></rect><defs><linearGradient id="grad1_0" x1="33.3%" y1="0%" x2="100%" y2="100%"><stop offset="20%" stop-color="#2e176b" stop-opacity="1"></stop><stop offset="80%" stop-color="#2e176b" stop-opacity="1"></stop></linearGradient></defs><defs><linearGradient id="grad2_0" x1="0%" y1="0%" x2="66.7%" y2="100%"><stop offset="20%" stop-color="#2e176b" stop-opacity="1"></stop><stop offset="80%" stop-color="#2e176b" stop-opacity="1"></stop></linearGradient></defs><g transform="translate(900, 0)"><path d="M0 216.3C-27.2 210.4 -54.4 204.5 -80.7 194.9C-107.1 185.4 -132.5 172.1 -153 153C-173.4 133.8 -188.9 108.8 -198.6 82.3C-208.4 55.8 -212.3 27.9 -216.3 0L0 0Z" fill="#C62368"></path></g><g transform="translate(0, 600)"><path d="M0 -216.3C24.2 -200.7 48.4 -185.1 71.9 -173.7C95.5 -162.3 118.5 -155.1 141.4 -141.4C164.4 -127.7 187.4 -107.4 199.9 -82.8C212.4 -58.1 214.3 -29.1 216.3 0L0 0Z" fill="#C62368"></path></g></svg>