<svg id="visual" viewBox="0 0 900 600" width="900" height="600" xmlns="http://www.w3.org/2000/svg" xmlns:xlink="http://www.w3.org/1999/xlink" version="1.1"><rect x="0" y="0" width="900" height="600" fill="#001220"></rect><path d="M0 482L18.8 483.3C37.7 484.7 75.3 487.3 112.8 485.7C150.3 484 187.7 478 225.2 475.8C262.7 473.7 300.3 475.3 337.8 482.2C375.3 489 412.7 501 450.2 504.3C487.7 507.7 525.3 502.3 562.8 493.8C600.3 485.3 637.7 473.7 675.2 472.2C712.7 470.7 750.3 479.3 787.8 487.2C825.3 495 862.7 502 881.3 505.5L900 509L900 601L881.3 601C862.7 601 825.3 601 787.8 601C750.3 601 712.7 601 675.2 601C637.7 601 600.3 601 562.8 601C525.3 601 487.7 601 450.2 601C412.7 601 375.3 601 337.8 601C300.3 601 262.7 601 225.2 601C187.7 601 150.3 601 112.8 601C75.3 601 37.7 601 18.8 601L0 601Z" fill="#fa7268"></path><path d="M0 486L18.8 490.7C37.7 495.3 75.3 504.7 112.8 507.5C150.3 510.3 187.7 506.7 225.2 502.8C262.7 499 300.3 495 337.8 498.8C375.3 502.7 412.7 514.3 450.2 519.8C487.7 525.3 525.3 524.7 562.8 519.2C600.3 513.7 637.7 503.3 675.2 501.7C712.7 500 750.3 507 787.8 512C825.3 517 862.7 520 881.3 521.5L900 523L900 601L881.3 601C862.7 601 825.3 601 787.8 601C750.3 601 712.7 601 675.2 601C637.7 601 600.3 601 562.8 601C525.3 601 487.7 601 450.2 601C412.7 601 375.3 601 337.8 601C300.3 601 262.7 601 225.2 601C187.7 601 150.3 601 112.8 601C75.3 601 37.7 601 18.8 601L0 601Z" fill="#eb5967"></path><path d="M0 556L18.8 553.3C37.7 550.7 75.3 545.3 112.8 541.3C150.3 537.3 187.7 534.7 225.2 533.5C262.7 532.3 300.3 532.7 337.8 532.3C375.3 532 412.7 531 450.2 528.7C487.7 526.3 525.3 522.7 562.8 523.7C600.3 524.7 637.7 530.3 675.2 529.7C712.7 529 750.3 522 787.8 520C825.3 518 862.7 521 881.3 522.5L900 524L900 601L881.3 601C862.7 601 825.3 601 787.8 601C750.3 601 712.7 601 675.2 601C637.7 601 600.3 601 562.8 601C525.3 601 487.7 601 450.2 601C412.7 601 375.3 601 337.8 601C300.3 601 262.7 601 225.2 601C187.7 601 150.3 601 112.8 601C75.3 601 37.7 601 18.8 601L0 601Z" fill="#da3f67"></path><path d="M0 572L18.8 567.7C37.7 563.3 75.3 554.7 112.8 554.3C150.3 554 187.7 562 225.2 566.5C262.7 571 300.3 572 337.8 571.3C375.3 570.7 412.7 568.3 450.2 567C487.7 565.7 525.3 565.3 562.8 563.8C600.3 562.3 637.7 559.7 675.2 558.5C712.7 557.3 750.3 557.7 787.8 557.8C825.3 558 862.7 558 881.3 558L900 558L900 601L881.3 601C862.7 601 825.3 601 787.8 601C750.3 601 712.7 601 675.2 601C637.7 601 600.3 601 562.8 601C525.3 601 487.7 601 450.2 601C412.7 601 375.3 601 337.8 601C300.3 601 262.7 601 225.2 601C187.7 601 150.3 601 112.8 601C75.3 601 37.7 601 18.8 601L0 601Z" fill="#c62368"></path></svg>