<svg id="visual" viewBox="0 0 900 450" width="900" height="450" xmlns="http://www.w3.org/2000/svg" xmlns:xlink="http://www.w3.org/1999/xlink" version="1.1"><rect x="0" y="0" width="900" height="450" fill="#001220"></rect><path d="M0 252L18.8 246C37.7 240 75.3 228 112.8 224.8C150.3 221.7 187.7 227.3 225.2 240.7C262.7 254 300.3 275 337.8 282.2C375.3 289.3 412.7 282.7 450.2 270.5C487.7 258.3 525.3 240.7 562.8 243C600.3 245.3 637.7 267.7 675.2 269.7C712.7 271.7 750.3 253.3 787.8 251.8C825.3 250.3 862.7 265.7 881.3 273.3L900 281L900 451L881.3 451C862.7 451 825.3 451 787.8 451C750.3 451 712.7 451 675.2 451C637.7 451 600.3 451 562.8 451C525.3 451 487.7 451 450.2 451C412.7 451 375.3 451 337.8 451C300.3 451 262.7 451 225.2 451C187.7 451 150.3 451 112.8 451C75.3 451 37.7 451 18.8 451L0 451Z" fill="#fa7268"></path><path d="M0 266L18.8 270.7C37.7 275.3 75.3 284.7 112.8 296.7C150.3 308.7 187.7 323.3 225.2 328.2C262.7 333 300.3 328 337.8 315C375.3 302 412.7 281 450.2 280.2C487.7 279.3 525.3 298.7 562.8 302C600.3 305.3 637.7 292.7 675.2 293.8C712.7 295 750.3 310 787.8 318.5C825.3 327 862.7 329 881.3 330L900 331L900 451L881.3 451C862.7 451 825.3 451 787.8 451C750.3 451 712.7 451 675.2 451C637.7 451 600.3 451 562.8 451C525.3 451 487.7 451 450.2 451C412.7 451 375.3 451 337.8 451C300.3 451 262.7 451 225.2 451C187.7 451 150.3 451 112.8 451C75.3 451 37.7 451 18.8 451L0 451Z" fill="#eb5967"></path><path d="M0 339L18.8 343C37.7 347 75.3 355 112.8 353.5C150.3 352 187.7 341 225.2 337C262.7 333 300.3 336 337.8 331.7C375.3 327.3 412.7 315.7 450.2 310.8C487.7 306 525.3 308 562.8 309.8C600.3 311.7 637.7 313.3 675.2 318.5C712.7 323.7 750.3 332.3 787.8 334.7C825.3 337 862.7 333 881.3 331L900 329L900 451L881.3 451C862.7 451 825.3 451 787.8 451C750.3 451 712.7 451 675.2 451C637.7 451 600.3 451 562.8 451C525.3 451 487.7 451 450.2 451C412.7 451 375.3 451 337.8 451C300.3 451 262.7 451 225.2 451C187.7 451 150.3 451 112.8 451C75.3 451 37.7 451 18.8 451L0 451Z" fill="#da3f67"></path><path d="M0 406L18.8 403.8C37.7 401.7 75.3 397.3 112.8 394.5C150.3 391.7 187.7 390.3 225.2 387.3C262.7 384.3 300.3 379.7 337.8 377.8C375.3 376 412.7 377 450.2 376.8C487.7 376.7 525.3 375.3 562.8 375.5C600.3 375.7 637.7 377.3 675.2 376.5C712.7 375.7 750.3 372.3 787.8 370.8C825.3 369.3 862.7 369.7 881.3 369.8L900 370L900 451L881.3 451C862.7 451 825.3 451 787.8 451C750.3 451 712.7 451 675.2 451C637.7 451 600.3 451 562.8 451C525.3 451 487.7 451 450.2 451C412.7 451 375.3 451 337.8 451C300.3 451 262.7 451 225.2 451C187.7 451 150.3 451 112.8 451C75.3 451 37.7 451 18.8 451L0 451Z" fill="#c62368"></path></svg>